2.6Hz3min_grf.mot
version=1
nRows=25
nColumns 19
inDegrees=yes
endheader
time	1_ground_force_vx	1_ground_force_vy	1_ground_force_vz	1_ground_force_px	1_ground_force_py	1_ground_force_pz	1_ground_torque_x	1_ground_torque_y	1_ground_torque_z	2_ground_force_vx	2_ground_force_vy	2_ground_force_vz	2_ground_force_px	2_ground_force_py	2_ground_force_pz	2_ground_torque_x	2_ground_torque_y	2_ground_torque_z
            2.502500	           -2.118159	          634.825990	          -65.187224	           -0.186681	            0.006160	           -0.388729	           -0.009670	            2.898272	           -0.297610	           16.566933	          534.880542	           91.956600	           -0.210002	            0.005916	           -0.751000	            0.037090	            1.197505	            0.205875
            2.503000	           -2.394234	          639.152706	          -65.259710	           -0.186536	            0.006161	           -0.388803	           -0.011116	            2.967419	           -0.302984	           17.168358	          537.089584	           92.761996	           -0.210148	            0.005913	           -0.750495	            0.040129	            1.255371	            0.216818
            2.503500	           -3.082945	          643.119069	          -65.378569	           -0.186569	            0.006162	           -0.389043	           -0.013716	            2.861326	           -0.290878	           17.674524	          539.668533	           93.052544	           -0.210233	            0.005913	           -0.750442	            0.039009	            1.191097	            0.205375
            2.504000	           -2.991821	          647.445069	          -65.268526	           -0.186649	            0.006162	           -0.389099	           -0.014007	            3.031128	           -0.305566	           18.646760	          542.983894	           93.861738	           -0.210301	            0.005913	           -0.750462	            0.041093	            1.196596	            0.206847
            2.504500	           -3.543751	          651.773109	          -65.661309	           -0.186726	            0.006162	           -0.389019	           -0.016809	            3.091632	           -0.311459	           19.146443	          547.403033	           94.534282	           -0.210399	            0.005913	           -0.750689	            0.040708	            1.163868	            0.200995
            2.505000	           -4.003785	          656.821639	          -65.913671	           -0.186879	            0.006161	           -0.388868	           -0.019137	            3.139485	           -0.315055	           19.736426	          552.743821	           95.022359	           -0.210619	            0.005913	           -0.750747	            0.038760	            1.085529	            0.186614
            2.505500	           -4.143078	          660.248595	          -66.357195	           -0.186688	            0.006162	           -0.389145	           -0.020232	            3.224171	           -0.324040	           20.476925	          555.322946	           95.500520	           -0.210573	            0.005912	           -0.750456	            0.038725	            1.050206	            0.180607
            2.506000	           -4.832001	          664.755921	          -66.519588	           -0.187020	            0.006163	           -0.389297	           -0.023605	            3.247426	           -0.324958	           20.837391	          559.373173	           96.171809	           -0.210659	            0.005912	           -0.750622	            0.038682	            1.038415	            0.178532
            2.506500	           -5.382762	          670.163135	          -66.357478	           -0.186862	            0.006161	           -0.388939	           -0.026583	            3.309669	           -0.327713	           21.061128	          562.319388	           96.463791	           -0.210886	            0.005911	           -0.750560	            0.036474	            0.973833	            0.167057
            2.507000	           -6.117103	          673.588403	          -66.432676	           -0.187119	            0.006162	           -0.389106	           -0.030118	            3.316493	           -0.327089	           21.234735	          566.185864	           96.852934	           -0.210876	            0.005911	           -0.750462	            0.037962	            1.012177	            0.173145
            2.507500	           -6.622279	          677.914879	          -66.458725	           -0.187048	            0.006163	           -0.389449	           -0.033273	            3.406078	           -0.333912	           21.598502	          569.315616	           97.474003	           -0.211022	            0.005909	           -0.750260	            0.037721	            0.994286	            0.170234
            2.508000	           -7.310633	          682.421222	          -66.391842	           -0.187245	            0.006164	           -0.389528	           -0.037743	            3.523156	           -0.342763	           21.683021	          571.893042	           97.764730	           -0.211005	            0.005909	           -0.750278	            0.035916	            0.947297	            0.161940
            2.508500	           -7.680006	          687.471539	          -67.057131	           -0.187398	            0.006163	           -0.389325	           -0.040552	            3.630028	           -0.354079	           21.716244	          575.757671	           98.529358	           -0.211097	            0.005909	           -0.750256	            0.033336	            0.883823	            0.151249
            2.509000	           -8.093640	          690.717089	          -67.225618	           -0.187408	            0.006163	           -0.389418	           -0.043738	            3.732633	           -0.363287	           22.028988	          579.993482	           98.732043	           -0.211105	            0.005909	           -0.750317	            0.031630	            0.832766	            0.141761
            2.509500	           -9.057881	          695.404929	          -67.478259	           -0.187456	            0.006164	           -0.389535	           -0.048486	            3.722457	           -0.361207	           21.925689	          582.752425	           99.586645	           -0.211210	            0.005909	           -0.750261	            0.031861	            0.846824	            0.144714
            2.510000	           -9.517473	          698.650666	          -67.692499	           -0.187532	            0.006164	           -0.389601	           -0.051177	            3.756765	           -0.363994	           22.007631	          586.065744	          100.067713	           -0.211233	            0.005909	           -0.750316	            0.031843	            0.847990	            0.144790
            2.510500	          -10.343550	          702.977080	          -67.717752	           -0.187701	            0.006164	           -0.389690	           -0.055817	            3.793483	           -0.365426	           21.903565	          589.009603	          100.688339	           -0.211261	            0.005907	           -0.749971	            0.029783	            0.800902	            0.136910
            2.511000	          -11.261200	          707.303279	          -67.696925	           -0.187583	            0.006164	           -0.389724	           -0.060943	            3.827757	           -0.366360	           22.075719	          593.245364	          100.797228	           -0.211209	            0.005908	           -0.750033	            0.028484	            0.765466	            0.130059
            2.511500	          -12.224950	          710.548600	          -67.864047	           -0.187634	            0.006165	           -0.389921	           -0.066527	            3.866715	           -0.369308	           21.691800	          595.820596	          101.228932	           -0.211332	            0.005907	           -0.749994	            0.023697	            0.650909	            0.110588
            2.512000	          -12.409031	          715.055041	          -67.798415	           -0.187676	            0.006165	           -0.389888	           -0.070139	            4.041668	           -0.383213	           21.912280	          599.687074	          101.664991	           -0.211208	            0.005908	           -0.750128	            0.022921	            0.627293	            0.106345
            2.512500	          -12.961302	          719.383670	          -68.328770	           -0.187771	            0.006165	           -0.389818	           -0.073168	            4.060985	           -0.385722	           21.713143	          602.999211	          102.193099	           -0.211276	            0.005907	           -0.749906	            0.020387	            0.566181	            0.095953
            2.513000	          -13.604853	          723.351099	          -68.722871	           -0.187835	            0.006165	           -0.389916	           -0.078634	            4.180885	           -0.397210	           21.558758	          606.864837	          102.488526	           -0.211259	            0.005907	           -0.749851	            0.020756	            0.584273	            0.098673
            2.513500	          -13.881204	          727.317935	          -68.934459	           -0.187994	            0.006166	           -0.390049	           -0.080307	            4.207736	           -0.398805	           21.222959	          609.072337	          102.778118	           -0.211411	            0.005906	           -0.749697	            0.018229	            0.523161	            0.088281
            2.514000	          -14.614942	          730.561924	          -68.781154	           -0.188061	            0.006166	           -0.390115	           -0.084249	            4.211369	           -0.396493	           21.114761	          613.122333	          103.074182	           -0.211182	            0.005907	           -0.749670	            0.018288	            0.531050	            0.089277
            2.514500	          -15.212715	          734.889955	          -69.173838	           -0.188044	            0.006165	           -0.389887	           -0.088998	            4.299290	           -0.404684	           21.149810	          616.435818	          103.461414	           -0.211346	            0.005905	           -0.749484	            0.016988	            0.495130	            0.083102
